<svg xmlns="http://www.w3.org/2000/svg" viewBox="0 0 507.38 134">
  <title>Resumi Logo</title>
  <g id="Layer_2" data-name="Layer 2">
    <g id="Layer_1-2" data-name="Layer 1">
      <g id="CombinationMarkLight">
        <g>
          <path d="M165.06,105.26V32.44H189.5q12.53,0,19.86,5.3t7.33,16.09v.41q0,15.38-16.19,19.56L221,105.26H206.31l-19-29.44H178.6v29.44ZM178.6,66.15h10.9q13.85,0,13.85-11.61v-.41q0-6-3.51-8.61t-10.34-2.6H178.6Z" style="fill: #051359"/>
          <path d="M252.14,106.28q-11.92,0-19.45-7.33t-7.54-19.76v-.81q0-12.22,7.49-19.86t19-7.64q10.79,0,18,6.72t7.18,20.17v3.56h-39Q238.09,89,241.85,93t10.59,4.07q10.79,0,12.22-8.15h11.92a18.45,18.45,0,0,1-7.74,12.83Q262.43,106.28,252.14,106.28ZM238,73.08h26.58q-.92-13.24-12.94-13.24a12.55,12.55,0,0,0-9.12,3.51A16.45,16.45,0,0,0,238,73.08Z" style="fill: #051359"/>
          <path d="M306.53,106.28q-10.29,0-16.09-4.58t-6.21-13h11.61a9.68,9.68,0,0,0,3,6.42q2.44,2.14,7.64,2.14,9.57,0,9.57-6.82a5.19,5.19,0,0,0-2.6-4.74q-2.6-1.58-8.81-2.6-10.69-1.73-15-5.25t-4.28-10.95a13.65,13.65,0,0,1,5.91-11.76,23.52,23.52,0,0,1,14.06-4.23q19.15,0,20.88,16.09H314.78a9.13,9.13,0,0,0-3-5.4q-2.19-1.73-6.47-1.73a9.94,9.94,0,0,0-6.21,1.73,5.51,5.51,0,0,0-2.24,4.58,4.68,4.68,0,0,0,2.34,4.28q2.34,1.43,8.66,2.55Q318.24,74.6,323,78t4.79,11.31q0,8.15-5.55,12.58T306.53,106.28Z" style="fill: #051359"/>
          <path d="M356.44,106.28q-8.35,0-13.34-5t-5-15.18V52h12.32V84.69q0,6,2.55,8.86t7.95,2.85A12.42,12.42,0,0,0,369.78,93q3.57-3.36,3.57-9.37V52h12.32v53.27H373.34V96.91a16.72,16.72,0,0,1-6.47,6.77A19.93,19.93,0,0,1,356.44,106.28Z" style="fill: #051359"/>
          <path d="M400.23,105.26V52h12.32v8.15a16.82,16.82,0,0,1,6.32-6.62,18.38,18.38,0,0,1,9.88-2.65q11.2,0,15.07,9.57a19.35,19.35,0,0,1,7.84-7.13,22.5,22.5,0,0,1,10.18-2.44A16.94,16.94,0,0,1,474.64,56q4.94,5.14,4.94,15.53v33.71H467.25V72.36q0-11.2-9.47-11.2a11.67,11.67,0,0,0-8.3,3.21q-3.41,3.21-3.41,9v31.88H433.74V72.36q0-11.2-9.47-11.2a11.67,11.67,0,0,0-8.3,3.21q-3.41,3.21-3.41,9v31.88Z" style="fill: #051359"/>
          <path d="M505.24,41.2a7.64,7.64,0,0,1-10.39,0,6.63,6.63,0,0,1-2.14-5,6.74,6.74,0,0,1,2.14-5.09,7.64,7.64,0,0,1,10.39,0,6.74,6.74,0,0,1,2.14,5.09A6.63,6.63,0,0,1,505.24,41.2ZM494,105.26V52h12.32v53.27Z" style="fill: #051359"/>
        </g>
        <g id="Logo">
          <path d="M110.33,0H4.66C2.09,0,0,1.73,0,3.85V35L39.9,70.44,113.7,6.51C116.53,4.06,114.43,0,110.33,0Z" style="fill: #4bc4ff"/>
          <path d="M0,35v95a4.13,4.13,0,0,0,4.25,4h96.5a4,4,0,0,0,2.91-6.91Z" style="fill: #026dfe"/>
          <polygon points="0 105 39.9 70.44 0 35 0 105" style="fill: #1194fe"/>
        </g>
      </g>
    </g>
  </g>
</svg>
