<svg xmlns="http://www.w3.org/2000/svg" xmlns:xlink="http://www.w3.org/1999/xlink" height="128" width="188"><defs><path id="a" d="M0 0H188V128H0z"/><mask id="d" maskUnits="userSpaceOnUse"><path d="M0 0H188V128H0z"/><use xlink:href="#a" fill="#fff"/></mask><path id="e" fill-rule="evenodd" d="M49.89 28.874v28.824c0 22.967 11.58 34.45 30.824 47.157l17.347 11.432a2.34 2.34 0 0 0 2.563 0l17.219-11.407c19.166-12.706 30.697-24.164 30.697-47.055v-28.95c0-8.352-6.816-15.125-15.22-15.125H65.11c-8.405 0-15.22 6.773-15.22 15.124z"/><filter id="f" filterUnits="userSpaceOnUse" x="-50%" y="-50%" width="200%" height="200%"><feOffset in="SourceAlpha" result="shadow-1-feOffset-shadow" dx="2" dy="2"/><feGaussianBlur in="shadow-1-feOffset-shadow" result="shadow-1-feGaussianBlur-shadow" stdDeviation="2"/><feColorMatrix in="shadow-1-feGaussianBlur-shadow" result="shadow-1-feColorMatrix-shadow" values="0 0 0 0 0.8705882352941177 0 0 0 0 0.8745098039215686 0 0 0 0 0.9176470588235294 0 0 0 0.5 0"/></filter><path id="g" fill-rule="evenodd" d="M106.286 72.059H91.963a1.335 1.335 0 0 1-1.332-1.324V57.902c0-.713.589-1.324 1.332-1.324h14.323c.718 0 1.333.585 1.333 1.324v12.833c-.026.738-.615 1.324-1.333 1.324z"/><filter id="h" filterUnits="userSpaceOnUse" x="-50%" y="-50%" width="200%" height="200%"><feOffset in="SourceAlpha" result="shadow-1-feOffset-shadow" dy="2"/><feGaussianBlur in="shadow-1-feOffset-shadow" result="shadow-1-feGaussianBlur-shadow" stdDeviation="2"/><feColorMatrix in="shadow-1-feGaussianBlur-shadow" result="shadow-1-feColorMatrix-shadow" values="0 0 0 0 0.4470588235294118 0 0 0 0 0.5529411764705883 0 0 0 0 1 0 0 0 0.5 0"/></filter><path id="b" fill-rule="evenodd" d="M8 62a2 2 0 0 1 2-2h4a2 2 0 0 1 2 2v4a2 2 0 0 1-2 2h-4a2 2 0 0 1-2-2v-4z"/><mask id="i" maskUnits="userSpaceOnUse" x="0" y="0"><path d="M0 0H188V128H0z"/><use xlink:href="#b" fill="#fff"/></mask><path id="c" fill-rule="evenodd" d="M169.657 81.657a2 2 0 0 1 2-2h4a2 2 0 0 1 2 2v4a2 2 0 0 1-2 2h-4a2 2 0 0 1-2-2v-4z"/><mask id="j" maskUnits="userSpaceOnUse" x="0" y="0"><path d="M0 0H188V128H0z"/><use xlink:href="#c" fill="#fff"/></mask></defs><g mask="url(#d)"><g><use xlink:href="#e" filter="url(#f)" stroke="#000" stroke-opacity="0" stroke-width="0"/><use xlink:href="#e" fill="#E3F4FF"/></g><ellipse fill="#0098FF" rx="23.958" ry="23.807" cx="99.214" cy="60.219"/><g><use xlink:href="#g" filter="url(#h)" stroke="#000" stroke-opacity="0" stroke-width="0"/><use xlink:href="#g" fill="#FAFDFF"/></g><g fill="#8ABCFF"><ellipse rx="1.75" ry="1.75" cx="99.125" cy="62.75"/><path fill-rule="evenodd" d="M98.545 63.333v4.084a.583.583 0 0 0 1.167 0v-4.084h-1.167z"/></g><path fill="#ECF8FF" fill-rule="evenodd" d="M95.32 56.527c0-2.063 1.998-3.718 3.74-3.718 1.743 0 3.742 1.68 3.742 3.718v.076h2.536c0-4.048-2.793-6.187-6.226-6.187-3.434 0-6.227 2.139-6.227 6.187h2.435v-.076z"/><ellipse fill="#61A0FF" rx="4.356" ry="4.329" cx="45.533" cy="106.688"/><ellipse fill="#61A0FF" rx="4.356" ry="4.329" cx="183.644" cy="4.329"/><path fill="#618BFF" fill-rule="evenodd" d="M178.1 126.853a2.118 2.118 0 0 1-3.07.349l-11.277-9.427c-.928-.774-1.095-2.22-.333-3.218a2.118 2.118 0 0 1 3.069-.349l11.278 9.427c.928.799 1.094 2.245.333 3.218zM19.358 27.81a2.118 2.118 0 0 1-3.07.35L5.012 18.731c-.928-.773-1.094-2.22-.333-3.217a2.118 2.118 0 0 1 3.07-.35l11.277 9.428c.928.798 1.094 2.244.333 3.217z"/><use xlink:href="#b" fill-opacity="0" stroke="#BBF1FF" stroke-width="2" mask="url(#i)"/><g transform="rotate(45 173.657 83.657)"><use xlink:href="#c" fill="#FFF"/><use xlink:href="#c" fill-opacity="0" stroke="#BBF1FF" stroke-width="2" mask="url(#j)"/></g></g></svg>