<svg height="20" width="20" xmlns="http://www.w3.org/2000/svg" xmlns:xlink="http://www.w3.org/1999/xlink"><mask id="a" maskUnits="userSpaceOnUse"><path d="m0 0h20v20h-20z"/><path d="m0 0h20v20h-20z" fill="#fff"/></mask><g mask="url(#a)"><path d="m18.658 5.225a9.956 9.956 0 0 0 -3.639-3.64c-1.532-.892-3.205-1.339-5.019-1.339-1.813 0-3.487.447-5.019 1.34a9.955 9.955 0 0 0 -3.639 3.64c-.895 1.531-1.342 3.204-1.342 5.019 0 2.178.636 4.138 1.908 5.878 1.271 1.74 2.914 2.945 4.928 3.613.234.044.408.013.52-.09a.51.51 0 0 0 .17-.391l-.007-.703c-.004-.443-.006-.83-.006-1.16l-.3.053a3.82 3.82 0 0 1 -.723.045 5.506 5.506 0 0 1 -.904-.09 2.022 2.022 0 0 1 -.873-.391 1.652 1.652 0 0 1 -.573-.8l-.13-.3a3.254 3.254 0 0 0 -.41-.664c-.187-.244-.375-.408-.566-.495l-.091-.065a.956.956 0 0 1 -.17-.157.714.714 0 0 1 -.117-.182c-.026-.06-.004-.11.065-.15.07-.04.195-.058.378-.058l.26.039c.174.034.389.138.645.312s.466.4.631.677c.2.356.44.627.723.814.282.187.566.28.853.28.286 0 .533-.022.742-.065a2.59 2.59 0 0 0 .586-.196c.078-.581.29-1.028.638-1.34a8.916 8.916 0 0 1 -1.335-.235 5.314 5.314 0 0 1 -1.224-.508 3.505 3.505 0 0 1 -1.048-.873c-.278-.347-.506-.803-.684-1.367-.177-.564-.266-1.215-.266-1.953 0-1.05.343-1.944 1.028-2.682-.321-.79-.29-1.675.091-2.656.252-.078.625-.02 1.12.176.495.195.857.362 1.087.5.23.14.415.257.554.352a9.246 9.246 0 0 1 2.5-.338c.859 0 1.692.113 2.5.338l.495-.312c.338-.208.738-.4 1.197-.573.46-.173.812-.221 1.055-.143.39.98.426 1.866.104 2.656.686.738 1.03 1.632 1.03 2.682 0 .738-.09 1.391-.268 1.96s-.408 1.024-.69 1.367a3.64 3.64 0 0 1 -1.054.866c-.421.234-.83.403-1.224.508-.396.104-.84.182-1.335.234.451.39.677 1.007.677 1.85v2.746c0 .156.054.287.163.39.108.105.28.135.514.092 2.014-.669 3.657-1.873 4.928-3.613 1.272-1.74 1.908-3.7 1.908-5.88 0-1.813-.448-3.486-1.342-5.018z" fill="#fff" fill-rule="evenodd"/></g></svg>