<svg viewBox="0 0 180 180" xmlns="http://www.w3.org/2000/svg"><circle cx="90" cy="90" fill="#f5fcff" r="90"/><g stroke-linecap="round" stroke-linejoin="round"><path d="m128.47 73.22 8.99 9.89-6.04 6.03 3.52 9.06h9.06v14.09h-9.06l-3.52 8.56 6.04 7.04-9.57 9.57-6.54-6.55-9.06 4.03v8.56h-14.09l.51-8.56-9.06-4.03-6.04 6.55-10.57-10.07" fill="none" stroke="#4bc3ff" stroke-width="6.039"/><path d="m116.5 102.81c.84 6.1-4.21 13.92-12.07 12.73" fill="none" stroke="#4bc3ff" stroke-width="6.039"/><path d="m89.86 49.58 6.03-6.54 9.57 10.06-6.04 6.04 3.52 9.06h9.06v14.09h-9.06l-3.52 8.56 6.04 7.04-9.57 9.57-6.54-6.54-9.06 4.02v8.56h-14.09l.51-8.56-9.06-4.02-6.04 6.54-10.57-10.07 6.54-6.04-3.02-9.06-9.56-.5v-13.59h9.56l3.02-9.06-6.04-6.04 10.07-10.06 6.04 6.54 9.06-4.02v-8.56h14.09v9.06z" fill="#fff" stroke="#2161ff" stroke-width="6.039216"/></g><circle cx="73.75" cy="75" fill="#fff" r="10.82" stroke="#2161ff" stroke-miterlimit="10" stroke-width="6.039216"/></svg>