<svg xmlns="http://www.w3.org/2000/svg" xmlns:xlink="http://www.w3.org/1999/xlink" height="26" width="26">
  <g opacity="1">
    <g opacity="1">
      <path fill="rgb(205,238,255)" fill-opacity="1" opacity="1" fill-rule="evenodd" d="M3 0L23 0C24.655745073482 0 26 1.344254926518 26 3L26 23C26 24.655745073482 24.655745073482 26 23 26L3 26C1.3442549265180004 26 4.440892098500626e-16 24.655745073482 0 23L0 3C0 1.3442549265180004 1.3442549265179995 4.440892098500626e-16 2.9999999999999996 0Z"/>
    </g>
    <g opacity="1">
      <g opacity="1">
        <path fill="rgb(255,255,255)" fill-opacity="1" opacity="1" fill-rule="evenodd" d="M6.5 5.5L10.5 5.5C11.051915024494 5.5 11.5 5.948084975506 11.5 6.5L11.5 10.5C11.5 11.051915024494 11.051915024494 11.5 10.5 11.5L6.5 11.5C5.948084975506 11.5 5.5 11.051915024494 5.5 10.5L5.5 6.5C5.5 5.948084975506 5.948084975506 5.5 6.5 5.5Z"/>
      </g>
      <g opacity="1">
        <path fill="rgb(255,255,255)" fill-opacity="1" opacity="1" fill-rule="evenodd" d="M15.5 14.5L19.5 14.5C20.051915024494 14.5 20.5 14.948084975506 20.5 15.5L20.5 19.5C20.5 20.051915024494 20.051915024494 20.5 19.5 20.5L15.5 20.5C14.948084975506 20.5 14.5 20.051915024494 14.5 19.5L14.5 15.5C14.5 14.948084975506 14.948084975506 14.5 15.5 14.5Z"/>
      </g>
      <g opacity="1">
        <path fill="rgb(255,255,255)" fill-opacity="1" opacity="1" fill-rule="evenodd" d="M6.5 14.5L10.5 14.5C11.051915024494 14.5 11.5 14.948084975506 11.5 15.5L11.5 19.5C11.5 20.051915024494 11.051915024494 20.5 10.5 20.5L6.5 20.5C5.948084975506 20.5 5.5 20.051915024494 5.5 19.5L5.5 15.5C5.5 14.948084975506 5.948084975506 14.5 6.5 14.5Z"/>
      </g>
      <g opacity="1">
        <path fill="rgb(255,255,255)" fill-opacity="1" opacity="1" fill-rule="evenodd" d="M15.5 5.5L19.5 5.5C20.051915024494 5.5 20.5 5.948084975506 20.5 6.5L20.5 10.5C20.5 11.051915024494 20.051915024494 11.5 19.5 11.5L15.5 11.5C14.948084975506 11.5 14.5 11.051915024494 14.5 10.5L14.5 6.5C14.5 5.948084975506 14.948084975506 5.5 15.5 5.5Z"/>
      </g>
    </g>
  </g>
</svg>