<svg xmlns="http://www.w3.org/2000/svg" xmlns:xlink="http://www.w3.org/1999/xlink" height="13" width="13">
  <g opacity="1">
    <g opacity="1">
      <path fill="rgb(255,255,255)" fill-opacity="1" opacity="1" fill-rule="evenodd" d="M6.5 0L6.5 0C7.051915024494 0 7.5 0.448084975506 7.5 1L7.5 12C7.5 12.551915024494 7.051915024494 13 6.5 13L6.5 13C5.948084975506 13 5.5 12.551915024494 5.5 12L5.5 1C5.5 0.4480849755060001 5.948084975506 1.1102230246251565e-16 6.5 0Z"/>
    </g>
    <g opacity="1">
      <path fill="rgb(255,255,255)" fill-opacity="1" opacity="1" fill-rule="evenodd" d="M1 5.5L12 5.5C12.551915024494 5.5 13 5.948084975506 13 6.5L13 6.5C13 7.051915024494 12.551915024494 7.5 12 7.5L1 7.5C0.4480849755060001 7.5 1.1102230246251565e-16 7.051915024494 0 6.5L0 6.5C0 5.948084975506 0.4480849755059998 5.5 0.9999999999999998 5.5Z"/>
    </g>
  </g>
</svg>