<svg xmlns="http://www.w3.org/2000/svg" xmlns:xlink="http://www.w3.org/1999/xlink" height="40" width="40">
  <defs>
    <rect id="rect-2" opacity="1" x="12" y="10" width="20.599999999999994" height="17.799999999999997"/>
    <mask id="mask-3" maskUnits="userSpaceOnUse" maskContentUnits="userSpaceOnUse">
      <rect opacity="1" x="0" y="0" width="40" height="40" fill="Black"/>
      <use xlink:href="#rect-2" fill="White"/>
    </mask>
  </defs>
  <g opacity="1">
    <g opacity="1">
      <ellipse fill="rgb(255,255,255)" fill-opacity="1" opacity="1" rx="20" ry="20" cx="20" cy="19.999999999999986"/>
    </g>
    <g opacity="1">
      <g/>
      <g mask="url(#mask-3)">
        <g opacity="1">
          <g opacity="1">
            <ellipse fill="rgb(245,252,255)" fill-opacity="1" opacity="1" rx="8.165961945031675" ry="8.364661654135343" cx="24.434038054969413" cy="18.364661654135343"/>
          </g>
          <g opacity="1">
            <g opacity="1">
              <path fill="rgb(34,119,255)" fill-opacity="1" opacity="1" fill-rule="evenodd" d="M14.373572938688298 27.62155388471175C13.959830866806703 27.62155388471175 13.633192389005444 27.28696741854634 13.633192389005444 26.885463659147845L13.633192389005444 14.416541353383419C13.633192389005444 14.015037593984923 13.959830866806703 13.68045112781951 14.351797040168215 13.68045112781951L14.373572938688298 13.68045112781951C14.76553911204981 13.68045112781951 15.092177589851069 14.015037593984923 15.092177589851069 14.416541353383419L15.092177589851069 26.885463659147845C15.092177589851069 27.28696741854634 14.765539112049808 27.62155388471175 14.373572938688298 27.62155388471175L14.373572938688298 27.62155388471175Z"/>
            </g>
            <g opacity="1">
              <path fill="rgb(34,119,255)" fill-opacity="1" opacity="1" fill-rule="evenodd" d="M25.2615221987321 27.800000000000015C24.847780126850502 27.800000000000015 24.52114164904924 27.4654135338346 24.52114164904924 27.063909774436105L24.52114164904924 14.594987468671686C24.52114164904924 14.19348370927319 24.847780126850502 13.858897243107776 25.239746300212015 13.858897243107776L25.2615221987321 13.858897243107776C25.653488372093612 13.858897243107776 25.980126849894873 14.19348370927319 25.980126849894873 14.594987468671686L25.980126849894873 27.063909774436105C25.95835095137479 27.4654135338346 25.653488372093612 27.800000000000015 25.2615221987321 27.800000000000015L25.2615221987321 27.800000000000015Z"/>
            </g>
            <g opacity="1">
              <path fill="rgb(34,119,255)" fill-opacity="1" opacity="1" fill-rule="evenodd" d="M19.99175475687205 27.62155388471175C19.57801268499046 27.62155388471175 19.2513742071892 27.28696741854634 19.2513742071892 26.885463659147845L19.2513742071892 14.416541353383419C19.2513742071892 14.015037593984923 19.57801268499046 13.68045112781951 19.96997885835197 13.68045112781951L19.99175475687205 13.68045112781951C20.38372093023356 13.68045112781951 20.71035940803482 14.015037593984923 20.71035940803482 14.416541353383419L20.71035940803482 26.885463659147845C20.71035940803482 27.28696741854634 20.38372093023356 27.62155388471175 19.99175475687205 27.62155388471175L19.99175475687205 27.62155388471175Z"/>
            </g>
            <g opacity="1">
              <path fill="rgb(75,195,255)" fill-opacity="1" opacity="1" fill-rule="evenodd" d="M16.006765327695483 18.320050125313255L12.544397463002104 18.320050125313255C12.239534883720925 18.320050125313255 12 18.074686716791955 12 17.762406015037573L12 17.583959899749352C12 17.27167919799497 12.239534883720925 17.02631578947367 12.544397463002104 17.02631578947367L16.006765327695483 17.02631578947367C16.31162790697666 17.02631578947367 16.551162790697585 17.27167919799497 16.551162790697585 17.583959899749352L16.551162790697585 17.7847117794486C16.529386892177502 18.074686716791955 16.289852008456577 18.320050125313255 16.006765327695483 18.320050125313255L16.006765327695483 18.320050125313255Z"/>
            </g>
            <g opacity="1">
              <path fill="rgb(75,195,255)" fill-opacity="1" opacity="1" fill-rule="evenodd" d="M21.799154334036896 23.53959899749377L18.33678646934351 23.53959899749377C18.031923890062334 23.53959899749377 17.79238900634141 23.294235588972466 17.79238900634141 22.981954887218084L17.79238900634141 22.781203007518837C17.79238900634141 22.468922305764455 18.031923890062334 22.22355889724315 18.33678646934351 22.22355889724315L21.799154334036896 22.22355889724315C22.104016913318073 22.22355889724315 22.343551797038998 22.468922305764455 22.343551797038998 22.781203007518837L22.343551797038998 22.981954887218084C22.343551797038998 23.27192982456144 22.104016913318073 23.53959899749377 21.799154334036896 23.53959899749377L21.799154334036896 23.53959899749377Z"/>
            </g>
            <g opacity="1">
              <path fill="rgb(75,195,255)" fill-opacity="1" opacity="1" fill-rule="evenodd" d="M27.068921775898982 19.43533834586467L23.606553911205598 19.43533834586467C23.30169133192442 19.43533834586467 23.062156448203496 19.189974937343365 23.062156448203496 18.877694235588983L23.062156448203496 18.699248120300762C23.062156448203496 18.38696741854638 23.30169133192442 18.141604010025077 23.606553911205598 18.141604010025077L27.068921775898982 18.141604010025077C27.37378435518016 18.141604010025077 27.613319238901084 18.38696741854638 27.613319238901084 18.699248120300762L27.613319238901084 18.90000000000001C27.591543340381 19.189974937343365 27.352008456660073 19.43533834586467 27.068921775898982 19.43533834586467L27.068921775898982 19.43533834586467Z"/>
            </g>
          </g>
        </g>
      </g>
    </g>
  </g>
</svg>