<svg xmlns="http://www.w3.org/2000/svg" xmlns:xlink="http://www.w3.org/1999/xlink" height="40" width="40">
  <defs>
    <rect id="rect-2" opacity="1" x="7" y="7" width="20" height="19.400000000000006"/>
    <mask id="mask-3" maskUnits="userSpaceOnUse" maskContentUnits="userSpaceOnUse">
      <rect opacity="1" x="0" y="0" width="40" height="40" fill="Black"/>
      <use xlink:href="#rect-2" fill="White"/>
    </mask>
  </defs>
  <g opacity="1">
    <g opacity="1">
      <ellipse fill="rgb(255,255,255)" fill-opacity="1" opacity="1" rx="20" ry="20" cx="20" cy="20"/>
    </g>
    <g opacity="1">
      <g/>
      <g mask="url(#mask-3)">
        <g opacity="1">
          <g opacity="1">
            <ellipse fill="rgb(245,252,255)" fill-opacity="1" opacity="1" rx="7.9207920792079225" ry="8.04979253112033" cx="14.920792079207922" cy="15.04979253112033"/>
          </g>
          <g opacity="1">
            <g opacity="1">
              <path fill="rgb(75,195,255)" fill-opacity="1" opacity="1" fill-rule="evenodd" d="M15.910891089108825 14.768049792531171C16.34653465346526 14.768049792531171 16.72277227722763 14.48630705394196 16.72277227722763 14.043568464730342C16.72277227722763 13.600829875518722 16.366336633663277 13.319087136929511 15.910891089108825 13.319087136929511L14.306930693069235 13.319087136929511C13.871287128712803 13.319087136929511 13.49504950495043 13.681327800829926 13.49504950495043 14.144190871369345L13.49504950495043 25.59502074688802C13.49504950495043 26.03775933609964 13.851485148514783 26.420124481327854 14.306930693069235 26.420124481327854L15.910891089108825 26.420124481327854C16.34653465346526 26.420124481327854 16.72277227722763 26.138381742738645 16.72277227722763 25.695643153527026C16.72277227722763 25.25290456431541 16.366336633663277 24.9711618257262 15.910891089108825 24.9711618257262L14.920792079207844 24.9711618257262L14.920792079207844 14.768049792531171L15.910891089108825 14.768049792531171L15.910891089108825 14.768049792531171Z"/>
            </g>
            <g opacity="1">
              <path fill="rgb(34,119,255)" fill-opacity="1" opacity="1" fill-rule="evenodd" d="M26.86138613861381 19.396680497925395L24.584158415841536 16.297510373444062C24.32673267326728 15.935269709543647 24.009900990098963 15.834647302904642 23.653465346534606 16.096265560166053C23.297029702970253 16.357883817427464 23.198019801980152 16.679875518672276 23.455445544554408 17.042116182572695L24.84158415841579 19.215560165975187L18.326732673267294 19.215560165975187C17.891089108910858 19.215560165975187 17.514851485148483 19.396680497925395 17.514851485148483 19.839419087137014C17.514851485148483 20.282157676348632 17.891089108910858 20.48340248962664 18.326732673267294 20.48340248962664L24.762376237623716 20.48340248962664L23.49504950495045 22.455601659751125C23.23762376237619 22.81784232365154 23.297029702970253 23.32095435684656 23.653465346534606 23.602697095435772C23.792079207920747 23.703319502074777 23.970297029702923 23.76369294605818 24.12871287128708 23.76369294605818C24.386138613861338 23.76369294605818 24.623762376237575 23.461825726141168 24.782178217821734 23.240456431535357L26.821782178217767 20.342531120332033C27.039603960395986 20.06078838174282 27.059405940594004 19.678423236514604 26.86138613861381 19.39668049792539L26.86138613861381 19.396680497925395Z"/>
            </g>
          </g>
        </g>
      </g>
    </g>
  </g>
</svg>